<?xml version="1.0" encoding="UTF-8"?>
<!DOCTYPE svg PUBLIC "-//W3C//DTD SVG 1.1//EN" "http://www.w3.org/Graphics/SVG/1.1/DTD/svg11.dtd">
<svg version="1.1" xmlns="http://www.w3.org/2000/svg" xmlns:xlink="http://www.w3.org/1999/xlink" width="1024" height="1024"  xml:space="preserve">
    <defs>
        <linearGradient id="linearGradient3961-rectangle" x1="512" y1="0" x2="512" y2="1024" gradientUnits="userSpaceOnUse" >
            <stop offset="0" stop-color="rgb(28, 199, 255)" stop-opacity="1" />
            <stop offset="1" stop-color="rgb(22, 110, 255)" stop-opacity="1" />
        </linearGradient>
    </defs>
    <g id="layer1">
        <g id="g3443">
            <rect id="rectangle" stroke="none" fill="url(#linearGradient3961-rectangle)" x="0" y="0" width="1024" height="1024" />
            <path id="bezier4" stroke="none" fill="rgb(146, 182, 255)" d="M 512.04,241.06 L 479.46,404.67 C 468.76,407.89 458.83,412.78 449.71,418.84 L 353.38,354.38 417.84,450.71 C 411.78,459.83 406.88,469.76 403.67,480.46 L 240.06,513.04 403.67,545.62 C 404.41,548.08 405.6,550.31 406.5,552.7 L 425.98,527.56 C 425.19,522.83 424.57,517.98 424.57,513.04 424.57,464.79 463.78,425.56 512.04,425.56 516.98,425.56 521.83,426.18 526.56,426.98 L 551.7,407.51 C 549.31,406.6 547.08,405.42 544.62,404.67 L 512.04,241.06 Z M 784.02,241.06 L 478.04,479.04 240.06,785.02 546.04,547.04 784.02,241.06 Z M 617.57,473.37 L 598.09,498.52 C 598.88,503.24 599.51,508.09 599.51,513.04 599.51,561.29 560.29,600.51 512.04,600.51 507.09,600.51 502.24,599.89 497.52,599.09 L 472.37,618.57 C 474.77,619.48 476.99,620.65 479.46,621.4 L 512.04,785.02 544.62,621.4 C 555.16,618.24 565,613.52 574.01,607.59 L 682.03,683.02 606.59,575.01 C 612.52,566 617.24,556.16 620.4,545.62 L 784.02,513.04 620.4,480.46 C 619.66,477.99 618.47,475.77 617.57,473.37 Z M 512.04,477.98 C 531.42,477.98 547.1,493.66 547.1,513.04 547.1,522.73 543.17,531.49 536.83,537.83 530.49,544.17 521.73,548.1 512.04,548.1 492.66,548.1 476.98,532.42 476.98,513.04 476.98,503.35 480.91,494.59 487.25,488.25 493.59,481.91 502.35,477.98 512.04,477.98 Z M 512.04,490.37 C 499.52,490.37 489.37,500.52 489.37,513.04 489.37,525.56 499.52,535.7 512.04,535.7 524.56,535.7 534.7,525.56 534.7,513.04 534.7,500.52 524.56,490.37 512.04,490.37 Z M 512.04,490.37" />
        </g>
    </g>
    <g id="g2170">
        <path id="bezier" stroke="none" fill="rgb(255, 255, 255)" d="M 514.56,108.15 C 469.13,108.15 432.32,140.42 432.33,180.17 432.32,219.93 469.13,252.2 514.56,252.2 559.98,252.2 596.8,219.93 596.79,180.17 596.8,140.42 559.98,108.15 514.56,108.15 Z M 512.72,143.17 C 534.77,143.17 552.69,158.78 552.69,178.08 552.69,197.38 534.77,213 512.72,213 490.67,213 472.75,197.38 472.75,178.08 472.75,158.78 490.67,143.17 512.72,143.17 Z M 512.72,143.17" />
        <path id="bezier2" stroke="none" fill="rgb(255, 255, 255)" d="M 483.62,237.96 C 479.75,237.9 483.62,244.9 483.62,268.35 L 483.62,298.74 403.25,297.71 C 340.06,296.91 321.6,297.65 316.92,301.19 309.45,306.84 308.27,344.94 315.57,345.13 L 479.95,344.78 C 480.13,380.53 480.64,416.3 480.14,452.05 478.29,525.92 476.86,599.79 476.11,673.67 475.78,713.68 474.11,752.07 472.4,758.97 465.95,785 447.93,788.53 392.38,774.67 334.6,760.24 262.84,728.18 250.76,711.4 241.16,698.05 239.66,686.61 246.6,679.62 250.06,676.14 255.21,674.1 258.04,675.09 261.16,676.18 264.45,673.8 266.42,669.01 273.38,652.15 250.17,627.23 204.45,602.47 193.34,596.45 175.16,583.53 164.05,573.76 152.39,563.5 142.1,556.99 139.73,558.38 132.35,562.68 117.25,593.78 112.61,614.23 103.29,655.34 115.12,716 137.11,739.8 148.72,752.36 155.19,752.47 157.9,740.15 162.66,718.44 192.33,724.7 224.65,754.24 250.23,777.62 298.94,811.5 320.16,820.68 328.24,824.18 339.81,829.86 345.87,833.32 351.93,836.77 370.12,843.71 386.28,848.74 420.14,859.29 459.79,877.96 475.49,890.76 481.45,895.62 490.46,902.06 495.51,905.07 504.33,910.33 504.92,910.21 510.91,901.88 523.4,884.52 544.94,869.33 577.57,854.88 595.91,846.75 613.67,840.11 617.03,840.11 624.19,840.11 684.6,815.77 720.99,798.22 749.51,784.47 762.35,776.18 794.21,750.98 830.17,722.53 848.37,719.32 867.25,738.08 L 879.03,749.8 886.6,742.26 C 900.29,728.63 905.32,714.92 907.97,684.11 910,660.55 909.14,647.76 904.16,627.31 896.3,595 883.11,567.39 873.25,562.58 867.03,559.55 864.91,560.43 859.59,568.25 850.34,581.84 837.42,592.54 812.53,607.19 782.73,624.73 764.74,642.81 759.22,660.8 753.87,678.17 756.31,684.48 766.44,679.54 777.5,674.15 784.7,675.62 788.96,684.14 794.96,696.12 785.95,705.77 751.13,724.63 691.65,756.85 611.91,783.24 574.02,783.24 556.14,783.24 539.35,776.94 536.66,769.22 535.36,765.5 535.3,721.59 536.51,671.65 537.73,621.71 539.69,528.93 540.88,465.47 542.07,402.02 543.6,349.28 544.28,348.28 544.96,347.27 582.84,346.77 628.45,347.16 723.09,347.96 718.11,349.58 717.33,318.24 L 716.87,299.84 C 660.35,296.24 602.49,303 546.21,296.08 545.15,295.11 544.04,283.19 543.74,269.58 L 543.21,238.92 483.62,237.96 Z M 483.62,237.96" />
    </g>
</svg>
